<svg xmlns="http://www.w3.org/2000/svg" viewBox="0 0 320.01 320.61"><defs><style>.cls-1{fill:#c8c8c8;}</style></defs><title>Asset 1</title><g id="Layer_2" data-name="Layer 2"><g id="Layer_1-2" data-name="Layer 1"><path class="cls-1" d="M211.24,35.84c3.09-3.19,5.06-3.57,8.41-.18q32.49,32.9,65.38,65.39c3.12,3.08,3.15,4.88,0,8q-84.42,84.16-168.67,168.51c-1.15,1.15-2.12,2.62-3.89,2.8-1.52-.26-2.36-1.36-3.28-2.28-22.28-22.26-44.48-44.6-66.88-66.73-3.64-3.59-1.21-5.29,1.08-7.58"/><path class="cls-1" d="M319.88,60.08c.72,9.31-3,16.71-9.08,23.11-3.23,3.36-6.71,6.49-9.82,10-2.41,2.68-4.18,2.29-6.54-.08Q261,59.45,227.39,25.92c-1.23-1.22-3.33-2.67-1.45-4.56,7-7,12.92-15.51,22.77-19,12.84-4.57,24.76-2.56,34.77,6.85C292.93,18.09,302,27.37,311,36.72,317.29,43.21,320.74,51,319.88,60.08Z"/><path class="cls-1" d="M5,319.61c-1.38.45-3,1.64-4.23.55-1.55-1.36-.22-3.1.28-4.61Q16.07,270.25,31.16,225c1.61-4.81,2.23-5,5.81-1.4q30.09,30,60.1,60.1a32.44,32.44,0,0,1,2.36,2.91c-.44,2.21-2.18,2.19-3.51,2.64"/></g></g></svg>